<svg width="800" height="800" viewBox="0 0 800 800" fill="none" xmlns="http://www.w3.org/2000/svg">
<path fill-rule="evenodd" clip-rule="evenodd" d="M496.281 467.93C449.965 502.175 382.596 520.421 324.491 520.421C243.088 520.421 170.105 490.386 114.526 440.421C110.316 436.491 113.965 431.158 119.298 434.246C179.088 469.053 252.912 489.825 329.263 489.825C380.632 489.825 437.333 479.158 489.544 456.982C497.404 453.895 503.86 462.316 496.281 467.93Z" fill="#FF9900"/>
<path fill-rule="evenodd" clip-rule="evenodd" d="M515.649 445.754C509.754 438.175 476.351 442.105 461.474 444.07C456.982 444.632 456.14 440.702 460.351 437.895C487.018 419.088 530.526 424.702 535.579 430.877C540.632 437.053 534.175 480.842 509.193 501.614C505.263 504.702 501.614 503.018 503.298 498.807C508.912 484.772 521.544 453.614 515.649 445.754Z" fill="#FF9900"/>
<path fill-rule="evenodd" clip-rule="evenodd" d="M462.316 305.965V287.719C462.316 284.912 464.281 283.228 466.807 283.228H548.21C550.737 283.228 552.982 285.193 552.982 287.719V303.158C552.982 305.684 550.737 309.053 546.807 314.667L504.702 374.737C520.421 374.456 536.982 376.702 551.018 384.561C554.105 386.246 554.947 389.053 555.228 391.579V410.947C555.228 413.754 552.421 416.842 549.333 415.158C524.351 401.965 490.947 400.561 463.439 415.439C460.632 416.842 457.544 414.035 457.544 411.228V392.702C457.544 389.895 457.544 384.842 460.632 380.351L509.474 310.456H467.088C464.561 310.456 462.316 308.491 462.316 305.965ZM165.614 419.088H140.912C138.667 418.807 136.702 417.123 136.421 414.877V288C136.421 285.474 138.667 283.509 141.193 283.509H164.211C166.737 283.509 168.421 285.474 168.702 287.719V304.281H169.263C175.158 288.281 186.667 280.702 201.825 280.702C217.263 280.702 227.088 288.281 233.825 304.281C239.719 288.281 253.474 280.702 268.07 280.702C278.456 280.702 289.684 284.912 296.702 294.737C304.561 305.404 302.877 320.842 302.877 334.597V414.877C302.877 417.403 300.632 419.368 298.105 419.368H273.684C271.158 419.088 269.193 417.123 269.193 414.877V347.509C269.193 342.175 269.754 328.702 268.632 323.649C266.667 315.228 261.333 312.702 254.035 312.702C248.14 312.702 241.684 316.632 239.158 323.088C236.632 329.544 236.912 340.211 236.912 347.509V414.877C236.912 417.403 234.667 419.368 232.14 419.368H207.439C204.912 419.088 202.947 417.123 202.947 414.877V347.509C202.947 333.474 205.193 312.421 187.789 312.421C170.105 312.421 170.667 332.632 170.667 347.509V414.877C170.386 417.123 168.421 419.088 165.614 419.088ZM623.158 280.702C659.93 280.702 679.86 312.14 679.86 352.281C679.86 391.018 657.965 421.895 623.158 421.895C587.228 421.895 567.579 390.456 567.579 351.158C567.298 311.579 587.228 280.702 623.158 280.702ZM623.158 306.807C604.912 306.807 603.789 331.79 603.789 347.228C603.789 362.667 603.509 395.789 622.877 395.789C641.965 395.789 643.088 369.123 643.088 352.842C643.088 342.175 642.526 329.263 639.439 319.158C636.632 310.175 631.018 306.807 623.158 306.807ZM727.298 419.088H702.596C700.07 418.807 698.105 416.842 698.105 414.597V287.439C698.386 285.193 700.351 283.228 702.877 283.228H725.895C728.14 283.228 729.825 284.912 730.386 286.877V306.246H730.947C737.965 288.842 747.509 280.702 764.632 280.702C775.579 280.702 786.526 284.632 793.544 295.579C800 305.684 800 322.807 800 335.158V415.158C799.719 417.404 797.754 419.088 795.228 419.088H770.526C768.281 418.807 766.316 417.123 766.035 415.158V346.105C766.035 332.07 767.719 311.86 750.596 311.86C744.702 311.86 739.088 315.79 736.281 321.965C732.912 329.825 732.351 337.403 732.351 346.105V414.597C732.07 417.123 729.825 419.088 727.298 419.088ZM397.474 358.456C397.474 368 397.754 376.14 392.982 384.842C389.053 391.86 382.877 396.07 375.86 396.07C366.316 396.07 360.702 388.772 360.702 378.105C360.702 357.053 379.509 353.123 397.474 353.123V358.456ZM422.456 418.807C420.772 420.211 418.526 420.491 416.561 419.368C408.421 412.632 406.737 409.263 402.246 402.807C388.772 416.561 378.947 420.772 361.544 420.772C340.772 420.772 324.491 407.86 324.491 382.316C324.491 362.105 335.439 348.632 350.877 341.895C364.351 336 383.158 334.877 397.474 333.193V330.105C397.474 324.211 398.035 317.193 394.386 312.14C391.298 307.649 385.684 305.684 380.632 305.684C371.088 305.684 362.667 310.456 360.702 320.561C360.14 322.807 358.737 325.053 356.491 325.053L332.632 322.526C330.667 321.965 328.421 320.561 328.982 317.474C334.597 288.281 360.702 279.579 384.281 279.579C396.351 279.579 412.07 282.667 421.614 291.93C433.684 303.158 432.561 318.316 432.561 334.597V373.053C432.561 384.561 437.333 389.614 441.825 396.07C443.509 398.316 443.789 401.123 441.825 402.526C436.491 406.737 427.509 414.597 422.456 418.807ZM73.2632 358.456C73.2632 368 73.5439 376.14 68.7719 384.842C64.8421 391.86 58.6666 396.07 51.6491 396.07C42.1052 396.07 36.4912 388.772 36.4912 378.105C36.4912 357.053 55.2983 353.123 73.2632 353.123V358.456ZM97.9649 418.807C96.2807 420.211 94.0351 420.491 92.0702 419.368C83.9298 412.632 82.2456 409.263 77.7544 402.807C64.2807 416.561 54.4561 420.772 37.0526 420.772C16.2807 420.772 0 407.86 0 382.316C0 362.105 10.9474 348.632 26.3859 341.895C39.8596 336 58.6667 334.877 72.9825 333.193V330.105C72.9825 324.211 73.5438 317.193 69.8947 312.14C66.807 307.649 61.193 305.684 56.1404 305.684C46.5965 305.684 38.1754 310.456 36.2105 320.561C35.6491 322.807 34.2456 325.053 32 325.053L8.14033 322.526C6.17542 321.965 3.92984 320.561 4.49125 317.474C10.1053 288.281 36.2105 279.579 59.7895 279.579C71.8597 279.579 87.579 282.667 97.1228 291.93C109.193 303.158 108.07 318.316 108.07 334.597V373.053C108.07 384.561 112.842 389.614 117.333 396.07C119.018 398.316 119.298 401.123 117.333 402.526C112 406.737 103.018 414.597 97.9649 418.807Z" fill="white"/>
</svg>
